<svg xmlns="http://www.w3.org/2000/svg" width="432" height="308" viewBox="0 0 432 308">
<text x="12" y="16" font-family="monospace" font-size="12" fill="#333333">a-orc-lair level 1</text>
<rect x="12" y="104" width="24" height="24" fill="#ddd4c0"/>
<rect x="36" y="104" width="24" height="24" fill="#ddd4c0"/>
<rect x="12" y="128" width="24" height="24" fill="#ddd4c0"/>
<rect x="36" y="128" width="24" height="24" fill="#ddd4c0"/>
<rect x="84" y="32" width="24" height="24" fill="#ddd4c0"/>
<rect x="108" y="32" width="24" height="24" fill="#ddd4c0"/>
<rect x="84" y="56" width="24" height="24" fill="#ddd4c0"/>
<rect x="108" y="56" width="24" height="24" fill="#ddd4c0"/>
<rect x="84" y="104" width="24" height="24" fill="#ddd4c0"/>
<rect x="108" y="104" width="24" height="24" fill="#ddd4c0"/>
<rect x="84" y="128" width="24" height="24" fill="#ddd4c0"/>
<rect x="108" y="128" width="24" height="24" fill="#ddd4c0"/>
<rect x="156" y="104" width="24" height="24" fill="#ddd4c0"/>
<rect x="180" y="104" width="24" height="24" fill="#ddd4c0"/>
<rect x="156" y="128" width="24" height="24" fill="#ddd4c0"/>
<rect x="180" y="128" width="24" height="24" fill="#ddd4c0"/>
<rect x="228" y="104" width="24" height="24" fill="#ddd4c0"/>
<rect x="252" y="104" width="24" height="24" fill="#ddd4c0"/>
<rect x="228" y="128" width="24" height="24" fill="#ddd4c0"/>
<rect x="252" y="128" width="24" height="24" fill="#ddd4c0"/>
<rect x="300" y="104" width="24" height="24" fill="#ddd4c0"/>
<rect x="324" y="104" width="24" height="24" fill="#ddd4c0"/>
<rect x="300" y="128" width="24" height="24" fill="#ddd4c0"/>
<rect x="324" y="128" width="24" height="24" fill="#ddd4c0"/>
<rect x="228" y="176" width="24" height="24" fill="#ddd4c0"/>
<rect x="252" y="176" width="24" height="24" fill="#ddd4c0"/>
<rect x="228" y="200" width="24" height="24" fill="#ddd4c0"/>
<rect x="252" y="200" width="24" height="24" fill="#ddd4c0"/>
<rect x="228" y="248" width="24" height="24" fill="#ddd4c0"/>
<rect x="252" y="248" width="24" height="24" fill="#ddd4c0"/>
<rect x="228" y="272" width="24" height="24" fill="#ddd4c0"/>
<rect x="252" y="272" width="24" height="24" fill="#ddd4c0"/>
<rect x="300" y="248" width="24" height="24" fill="#ddd4c0"/>
<rect x="324" y="248" width="24" height="24" fill="#ddd4c0"/>
<rect x="300" y="272" width="24" height="24" fill="#ddd4c0"/>
<rect x="324" y="272" width="24" height="24" fill="#ddd4c0"/>
<rect x="300" y="176" width="24" height="24" fill="#ddd4c0"/>
<rect x="324" y="176" width="24" height="24" fill="#ddd4c0"/>
<rect x="300" y="200" width="24" height="24" fill="#ddd4c0"/>
<rect x="324" y="200" width="24" height="24" fill="#ddd4c0"/>
<rect x="372" y="176" width="24" height="24" fill="#ddd4c0"/>
<rect x="396" y="176" width="24" height="24" fill="#ddd4c0"/>
<rect x="372" y="200" width="24" height="24" fill="#ddd4c0"/>
<rect x="396" y="200" width="24" height="24" fill="#ddd4c0"/>
<rect x="84" y="80" width="24" height="24" fill="#efe9dc"/>
<rect x="60" y="104" width="24" height="24" fill="#efe9dc"/>
<rect x="132" y="104" width="24" height="24" fill="#efe9dc"/>
<rect x="204" y="104" width="24" height="24" fill="#efe9dc"/>
<rect x="276" y="104" width="24" height="24" fill="#efe9dc"/>
<rect x="228" y="152" width="24" height="24" fill="#efe9dc"/>
<rect x="276" y="176" width="24" height="24" fill="#efe9dc"/>
<rect x="348" y="176" width="24" height="24" fill="#efe9dc"/>
<rect x="228" y="224" width="24" height="24" fill="#efe9dc"/>
<rect x="276" y="248" width="24" height="24" fill="#efe9dc"/>
<line x1="12" y1="104" x2="12" y2="128" stroke="#333333" stroke-width="2"/>
<line x1="12" y1="104" x2="36" y2="104" stroke="#333333" stroke-width="2"/>
<line x1="12" y1="128" x2="12" y2="152" stroke="#333333" stroke-width="2"/>
<line x1="12" y1="152" x2="36" y2="152" stroke="#333333" stroke-width="2"/>
<line x1="36" y1="104" x2="60" y2="104" stroke="#333333" stroke-width="2"/>
<line x1="36" y1="152" x2="60" y2="152" stroke="#333333" stroke-width="2"/>
<line x1="60" y1="104" x2="84" y2="104" stroke="#333333" stroke-width="2"/>
<line x1="60" y1="128" x2="60" y2="152" stroke="#333333" stroke-width="2"/>
<line x1="60" y1="128" x2="84" y2="128" stroke="#333333" stroke-width="2"/>
<line x1="84" y1="32" x2="84" y2="56" stroke="#333333" stroke-width="2"/>
<line x1="84" y1="32" x2="108" y2="32" stroke="#333333" stroke-width="2"/>
<line x1="84" y1="56" x2="84" y2="80" stroke="#333333" stroke-width="2"/>
<line x1="84" y1="80" x2="84" y2="104" stroke="#333333" stroke-width="2"/>
<line x1="84" y1="128" x2="84" y2="152" stroke="#333333" stroke-width="2"/>
<line x1="84" y1="152" x2="108" y2="152" stroke="#333333" stroke-width="2"/>
<line x1="108" y1="32" x2="132" y2="32" stroke="#333333" stroke-width="2"/>
<line x1="108" y1="80" x2="108" y2="104" stroke="#333333" stroke-width="2"/>
<line x1="108" y1="80" x2="132" y2="80" stroke="#333333" stroke-width="2"/>
<line x1="108" y1="104" x2="132" y2="104" stroke="#333333" stroke-width="2"/>
<line x1="108" y1="152" x2="132" y2="152" stroke="#333333" stroke-width="2"/>
<line x1="132" y1="32" x2="132" y2="56" stroke="#333333" stroke-width="2"/>
<line x1="132" y1="56" x2="132" y2="80" stroke="#333333" stroke-width="2"/>
<line x1="132" y1="104" x2="156" y2="104" stroke="#333333" stroke-width="2"/>
<line x1="132" y1="128" x2="132" y2="152" stroke="#333333" stroke-width="2"/>
<line x1="132" y1="128" x2="156" y2="128" stroke="#333333" stroke-width="2"/>
<line x1="156" y1="104" x2="180" y2="104" stroke="#333333" stroke-width="2"/>
<line x1="156" y1="128" x2="156" y2="152" stroke="#333333" stroke-width="2"/>
<line x1="156" y1="152" x2="180" y2="152" stroke="#333333" stroke-width="2"/>
<line x1="180" y1="104" x2="204" y2="104" stroke="#333333" stroke-width="2"/>
<line x1="180" y1="152" x2="204" y2="152" stroke="#333333" stroke-width="2"/>
<line x1="204" y1="104" x2="228" y2="104" stroke="#333333" stroke-width="2"/>
<line x1="204" y1="128" x2="204" y2="152" stroke="#333333" stroke-width="2"/>
<line x1="204" y1="128" x2="228" y2="128" stroke="#333333" stroke-width="2"/>
<line x1="228" y1="104" x2="252" y2="104" stroke="#333333" stroke-width="2"/>
<line x1="228" y1="128" x2="228" y2="152" stroke="#333333" stroke-width="2"/>
<line x1="228" y1="152" x2="228" y2="176" stroke="#333333" stroke-width="2"/>
<line x1="228" y1="176" x2="228" y2="200" stroke="#333333" stroke-width="2"/>
<line x1="228" y1="200" x2="228" y2="224" stroke="#333333" stroke-width="2"/>
<line x1="228" y1="224" x2="228" y2="248" stroke="#333333" stroke-width="2"/>
<line x1="228" y1="248" x2="228" y2="272" stroke="#333333" stroke-width="2"/>
<line x1="228" y1="272" x2="228" y2="296" stroke="#333333" stroke-width="2"/>
<line x1="228" y1="296" x2="252" y2="296" stroke="#333333" stroke-width="2"/>
<line x1="252" y1="104" x2="276" y2="104" stroke="#333333" stroke-width="2"/>
<line x1="252" y1="152" x2="252" y2="176" stroke="#333333" stroke-width="2"/>
<line x1="252" y1="152" x2="276" y2="152" stroke="#333333" stroke-width="2"/>
<line x1="252" y1="176" x2="276" y2="176" stroke="#333333" stroke-width="2"/>
<line x1="252" y1="224" x2="252" y2="248" stroke="#333333" stroke-width="2"/>
<line x1="252" y1="224" x2="276" y2="224" stroke="#333333" stroke-width="2"/>
<line x1="252" y1="248" x2="276" y2="248" stroke="#333333" stroke-width="2"/>
<line x1="252" y1="296" x2="276" y2="296" stroke="#333333" stroke-width="2"/>
<line x1="276" y1="104" x2="300" y2="104" stroke="#333333" stroke-width="2"/>
<line x1="276" y1="128" x2="276" y2="152" stroke="#333333" stroke-width="2"/>
<line x1="276" y1="128" x2="300" y2="128" stroke="#333333" stroke-width="2"/>
<line x1="276" y1="176" x2="300" y2="176" stroke="#333333" stroke-width="2"/>
<line x1="276" y1="200" x2="276" y2="224" stroke="#333333" stroke-width="2"/>
<line x1="276" y1="200" x2="300" y2="200" stroke="#333333" stroke-width="2"/>
<line x1="276" y1="248" x2="300" y2="248" stroke="#333333" stroke-width="2"/>
<line x1="276" y1="272" x2="276" y2="296" stroke="#333333" stroke-width="2"/>
<line x1="276" y1="272" x2="300" y2="272" stroke="#333333" stroke-width="2"/>
<line x1="300" y1="104" x2="324" y2="104" stroke="#333333" stroke-width="2"/>
<line x1="300" y1="128" x2="300" y2="152" stroke="#333333" stroke-width="2"/>
<line x1="300" y1="152" x2="324" y2="152" stroke="#333333" stroke-width="2"/>
<line x1="300" y1="176" x2="324" y2="176" stroke="#333333" stroke-width="2"/>
<line x1="300" y1="200" x2="300" y2="224" stroke="#333333" stroke-width="2"/>
<line x1="300" y1="224" x2="324" y2="224" stroke="#333333" stroke-width="2"/>
<line x1="300" y1="248" x2="324" y2="248" stroke="#333333" stroke-width="2"/>
<line x1="300" y1="272" x2="300" y2="296" stroke="#333333" stroke-width="2"/>
<line x1="300" y1="296" x2="324" y2="296" stroke="#333333" stroke-width="2"/>
<line x1="324" y1="104" x2="348" y2="104" stroke="#333333" stroke-width="2"/>
<line x1="324" y1="152" x2="348" y2="152" stroke="#333333" stroke-width="2"/>
<line x1="324" y1="176" x2="348" y2="176" stroke="#333333" stroke-width="2"/>
<line x1="324" y1="224" x2="348" y2="224" stroke="#333333" stroke-width="2"/>
<line x1="324" y1="248" x2="348" y2="248" stroke="#333333" stroke-width="2"/>
<line x1="324" y1="296" x2="348" y2="296" stroke="#333333" stroke-width="2"/>
<line x1="348" y1="104" x2="348" y2="128" stroke="#333333" stroke-width="2"/>
<line x1="348" y1="128" x2="348" y2="152" stroke="#333333" stroke-width="2"/>
<line x1="348" y1="176" x2="372" y2="176" stroke="#333333" stroke-width="2"/>
<line x1="348" y1="200" x2="348" y2="224" stroke="#333333" stroke-width="2"/>
<line x1="348" y1="200" x2="372" y2="200" stroke="#333333" stroke-width="2"/>
<line x1="348" y1="248" x2="348" y2="272" stroke="#333333" stroke-width="2"/>
<line x1="348" y1="272" x2="348" y2="296" stroke="#333333" stroke-width="2"/>
<line x1="372" y1="176" x2="396" y2="176" stroke="#333333" stroke-width="2"/>
<line x1="372" y1="200" x2="372" y2="224" stroke="#333333" stroke-width="2"/>
<line x1="372" y1="224" x2="396" y2="224" stroke="#333333" stroke-width="2"/>
<line x1="396" y1="176" x2="420" y2="176" stroke="#333333" stroke-width="2"/>
<line x1="396" y1="224" x2="420" y2="224" stroke="#333333" stroke-width="2"/>
<line x1="420" y1="176" x2="420" y2="200" stroke="#333333" stroke-width="2"/>
<line x1="420" y1="200" x2="420" y2="224" stroke="#333333" stroke-width="2"/>
<circle cx="24" cy="116" r="7" fill="none" stroke="#1a7f37" stroke-width="2"/>
<text x="15" y="114" font-family="monospace" font-size="8" paint-order="stroke" stroke="#efe9dc" stroke-width="2" fill="#333333">1</text>
<text x="87" y="42" font-family="monospace" font-size="8" paint-order="stroke" stroke="#efe9dc" stroke-width="2" fill="#333333">2</text>
<text x="87" y="114" font-family="monospace" font-size="8" paint-order="stroke" stroke="#efe9dc" stroke-width="2" fill="#333333">3</text>
<text x="159" y="114" font-family="monospace" font-size="8" paint-order="stroke" stroke="#efe9dc" stroke-width="2" fill="#333333">4</text>
<text x="231" y="114" font-family="monospace" font-size="8" paint-order="stroke" stroke="#efe9dc" stroke-width="2" fill="#333333">5</text>
<text x="303" y="114" font-family="monospace" font-size="8" paint-order="stroke" stroke="#efe9dc" stroke-width="2" fill="#333333">jail-area</text>
<text x="231" y="186" font-family="monospace" font-size="8" paint-order="stroke" stroke="#efe9dc" stroke-width="2" fill="#333333">6</text>
<text x="231" y="258" font-family="monospace" font-size="8" paint-order="stroke" stroke="#efe9dc" stroke-width="2" fill="#333333">7</text>
<text x="303" y="258" font-family="monospace" font-size="8" paint-order="stroke" stroke="#efe9dc" stroke-width="2" fill="#333333">8</text>
<text x="303" y="186" font-family="monospace" font-size="8" paint-order="stroke" stroke="#efe9dc" stroke-width="2" fill="#333333">9</text>
<text x="375" y="186" font-family="monospace" font-size="8" paint-order="stroke" stroke="#efe9dc" stroke-width="2" fill="#333333">10</text>
</svg>
