<svg xmlns="http://www.w3.org/2000/svg" width="450" height="104" viewBox="0 0 450 104">
<text x="12" y="16" font-family="monospace" font-size="12" fill="#333333">b-orc-lair level 1</text>
<text x="42" y="41" font-family="monospace" font-size="8" text-anchor="middle" fill="#888888">0</text>
<text x="66" y="41" font-family="monospace" font-size="8" text-anchor="middle" fill="#888888">1</text>
<text x="90" y="41" font-family="monospace" font-size="8" text-anchor="middle" fill="#888888">2</text>
<text x="114" y="41" font-family="monospace" font-size="8" text-anchor="middle" fill="#888888">3</text>
<text x="138" y="41" font-family="monospace" font-size="8" text-anchor="middle" fill="#888888">4</text>
<text x="162" y="41" font-family="monospace" font-size="8" text-anchor="middle" fill="#888888">5</text>
<text x="186" y="41" font-family="monospace" font-size="8" text-anchor="middle" fill="#888888">6</text>
<text x="210" y="41" font-family="monospace" font-size="8" text-anchor="middle" fill="#888888">7</text>
<text x="234" y="41" font-family="monospace" font-size="8" text-anchor="middle" fill="#888888">8</text>
<text x="258" y="41" font-family="monospace" font-size="8" text-anchor="middle" fill="#888888">9</text>
<text x="282" y="41" font-family="monospace" font-size="8" text-anchor="middle" fill="#888888">10</text>
<text x="306" y="41" font-family="monospace" font-size="8" text-anchor="middle" fill="#888888">11</text>
<text x="330" y="41" font-family="monospace" font-size="8" text-anchor="middle" fill="#888888">12</text>
<text x="354" y="41" font-family="monospace" font-size="8" text-anchor="middle" fill="#888888">13</text>
<text x="378" y="41" font-family="monospace" font-size="8" text-anchor="middle" fill="#888888">14</text>
<text x="402" y="41" font-family="monospace" font-size="8" text-anchor="middle" fill="#888888">15</text>
<text x="426" y="41" font-family="monospace" font-size="8" text-anchor="middle" fill="#888888">16</text>
<text x="26" y="59" font-family="monospace" font-size="8" text-anchor="end" fill="#888888">0</text>
<text x="26" y="83" font-family="monospace" font-size="8" text-anchor="end" fill="#888888">1</text>
<rect x="30" y="44" width="24" height="24" fill="#ddd4c0"/>
<rect x="54" y="44" width="24" height="24" fill="#ddd4c0"/>
<rect x="30" y="68" width="24" height="24" fill="#ddd4c0"/>
<rect x="54" y="68" width="24" height="24" fill="#ddd4c0"/>
<rect x="318" y="44" width="24" height="24" fill="#ddd4c0"/>
<rect x="342" y="44" width="24" height="24" fill="#ddd4c0"/>
<rect x="318" y="68" width="24" height="24" fill="#ddd4c0"/>
<rect x="342" y="68" width="24" height="24" fill="#ddd4c0"/>
<rect x="102" y="44" width="24" height="24" fill="#ddd4c0"/>
<rect x="126" y="44" width="24" height="24" fill="#ddd4c0"/>
<rect x="102" y="68" width="24" height="24" fill="#ddd4c0"/>
<rect x="126" y="68" width="24" height="24" fill="#ddd4c0"/>
<rect x="390" y="44" width="24" height="24" fill="#ddd4c0"/>
<rect x="414" y="44" width="24" height="24" fill="#ddd4c0"/>
<rect x="390" y="68" width="24" height="24" fill="#ddd4c0"/>
<rect x="414" y="68" width="24" height="24" fill="#ddd4c0"/>
<rect x="174" y="44" width="24" height="24" fill="#ddd4c0"/>
<rect x="198" y="44" width="24" height="24" fill="#ddd4c0"/>
<rect x="174" y="68" width="24" height="24" fill="#ddd4c0"/>
<rect x="198" y="68" width="24" height="24" fill="#ddd4c0"/>
<rect x="246" y="44" width="24" height="24" fill="#ddd4c0"/>
<rect x="270" y="44" width="24" height="24" fill="#ddd4c0"/>
<rect x="246" y="68" width="24" height="24" fill="#ddd4c0"/>
<rect x="270" y="68" width="24" height="24" fill="#ddd4c0"/>
<rect x="78" y="44" width="24" height="24" fill="#efe9dc"/>
<rect x="150" y="44" width="24" height="24" fill="#efe9dc"/>
<rect x="222" y="44" width="24" height="24" fill="#efe9dc"/>
<rect x="294" y="44" width="24" height="24" fill="#efe9dc"/>
<rect x="366" y="44" width="24" height="24" fill="#efe9dc"/>
<line x1="30" y1="44" x2="30" y2="68" stroke="#333333" stroke-width="2"/>
<line x1="30" y1="44" x2="54" y2="44" stroke="#333333" stroke-width="2"/>
<line x1="30" y1="68" x2="30" y2="92" stroke="#333333" stroke-width="2"/>
<line x1="30" y1="92" x2="54" y2="92" stroke="#333333" stroke-width="2"/>
<line x1="54" y1="44" x2="78" y2="44" stroke="#333333" stroke-width="2"/>
<line x1="54" y1="92" x2="78" y2="92" stroke="#333333" stroke-width="2"/>
<line x1="78" y1="44" x2="102" y2="44" stroke="#333333" stroke-width="2"/>
<line x1="78" y1="68" x2="78" y2="92" stroke="#333333" stroke-width="2"/>
<line x1="78" y1="68" x2="102" y2="68" stroke="#333333" stroke-width="2"/>
<line x1="102" y1="44" x2="126" y2="44" stroke="#333333" stroke-width="2"/>
<line x1="102" y1="68" x2="102" y2="92" stroke="#333333" stroke-width="2"/>
<line x1="102" y1="92" x2="126" y2="92" stroke="#333333" stroke-width="2"/>
<line x1="126" y1="44" x2="150" y2="44" stroke="#333333" stroke-width="2"/>
<line x1="126" y1="92" x2="150" y2="92" stroke="#333333" stroke-width="2"/>
<line x1="150" y1="44" x2="174" y2="44" stroke="#333333" stroke-width="2"/>
<line x1="150" y1="68" x2="150" y2="92" stroke="#333333" stroke-width="2"/>
<line x1="150" y1="68" x2="174" y2="68" stroke="#333333" stroke-width="2"/>
<line x1="174" y1="44" x2="198" y2="44" stroke="#333333" stroke-width="2"/>
<line x1="174" y1="68" x2="174" y2="92" stroke="#333333" stroke-width="2"/>
<line x1="174" y1="92" x2="198" y2="92" stroke="#333333" stroke-width="2"/>
<line x1="198" y1="44" x2="222" y2="44" stroke="#333333" stroke-width="2"/>
<line x1="198" y1="92" x2="222" y2="92" stroke="#333333" stroke-width="2"/>
<line x1="222" y1="44" x2="246" y2="44" stroke="#333333" stroke-width="2"/>
<line x1="222" y1="68" x2="222" y2="92" stroke="#333333" stroke-width="2"/>
<line x1="222" y1="68" x2="246" y2="68" stroke="#333333" stroke-width="2"/>
<line x1="246" y1="44" x2="270" y2="44" stroke="#333333" stroke-width="2"/>
<line x1="246" y1="68" x2="246" y2="92" stroke="#333333" stroke-width="2"/>
<line x1="246" y1="92" x2="270" y2="92" stroke="#333333" stroke-width="2"/>
<line x1="270" y1="44" x2="294" y2="44" stroke="#333333" stroke-width="2"/>
<line x1="270" y1="92" x2="294" y2="92" stroke="#333333" stroke-width="2"/>
<line x1="294" y1="44" x2="318" y2="44" stroke="#333333" stroke-width="2"/>
<line x1="294" y1="68" x2="294" y2="92" stroke="#333333" stroke-width="2"/>
<line x1="294" y1="68" x2="318" y2="68" stroke="#333333" stroke-width="2"/>
<line x1="318" y1="44" x2="342" y2="44" stroke="#333333" stroke-width="2"/>
<line x1="318" y1="68" x2="318" y2="92" stroke="#333333" stroke-width="2"/>
<line x1="318" y1="92" x2="342" y2="92" stroke="#333333" stroke-width="2"/>
<line x1="342" y1="44" x2="366" y2="44" stroke="#333333" stroke-width="2"/>
<line x1="342" y1="92" x2="366" y2="92" stroke="#333333" stroke-width="2"/>
<line x1="366" y1="44" x2="390" y2="44" stroke="#333333" stroke-width="2"/>
<line x1="366" y1="68" x2="366" y2="92" stroke="#333333" stroke-width="2"/>
<line x1="366" y1="68" x2="390" y2="68" stroke="#333333" stroke-width="2"/>
<line x1="390" y1="44" x2="414" y2="44" stroke="#333333" stroke-width="2"/>
<line x1="390" y1="68" x2="390" y2="92" stroke="#333333" stroke-width="2"/>
<line x1="390" y1="92" x2="414" y2="92" stroke="#333333" stroke-width="2"/>
<line x1="414" y1="44" x2="438" y2="44" stroke="#333333" stroke-width="2"/>
<line x1="414" y1="92" x2="438" y2="92" stroke="#333333" stroke-width="2"/>
<line x1="438" y1="44" x2="438" y2="68" stroke="#333333" stroke-width="2"/>
<line x1="438" y1="68" x2="438" y2="92" stroke="#333333" stroke-width="2"/>
<circle cx="42" cy="56" r="7" fill="none" stroke="#1a7f37" stroke-width="2"/>
<text x="33" y="54" font-family="monospace" font-size="8" paint-order="stroke" stroke="#efe9dc" stroke-width="2" fill="#333333">entrance</text>
<text x="321" y="54" font-family="monospace" font-size="8" paint-order="stroke" stroke="#efe9dc" stroke-width="2" fill="#333333">11</text>
<text x="105" y="54" font-family="monospace" font-size="8" paint-order="stroke" stroke="#efe9dc" stroke-width="2" fill="#333333">12</text>
<text x="393" y="54" font-family="monospace" font-size="8" paint-order="stroke" stroke="#efe9dc" stroke-width="2" fill="#333333">13</text>
<text x="177" y="54" font-family="monospace" font-size="8" paint-order="stroke" stroke="#efe9dc" stroke-width="2" fill="#333333">14</text>
<text x="249" y="54" font-family="monospace" font-size="8" paint-order="stroke" stroke="#efe9dc" stroke-width="2" fill="#333333">15</text>
</svg>
