<svg xmlns="http://www.w3.org/2000/svg" width="360" height="236" viewBox="0 0 360 236">
<text x="12" y="16" font-family="monospace" font-size="12" fill="#333333">f-bandit-lair level 1</text>
<rect x="12" y="32" width="24" height="24" fill="#ddd4c0"/>
<rect x="36" y="32" width="24" height="24" fill="#ddd4c0"/>
<rect x="12" y="56" width="24" height="24" fill="#ddd4c0"/>
<rect x="36" y="56" width="24" height="24" fill="#ddd4c0"/>
<rect x="84" y="32" width="24" height="24" fill="#ddd4c0"/>
<rect x="108" y="32" width="24" height="24" fill="#ddd4c0"/>
<rect x="84" y="56" width="24" height="24" fill="#ddd4c0"/>
<rect x="108" y="56" width="24" height="24" fill="#ddd4c0"/>
<rect x="156" y="32" width="24" height="24" fill="#ddd4c0"/>
<rect x="180" y="32" width="24" height="24" fill="#ddd4c0"/>
<rect x="156" y="56" width="24" height="24" fill="#ddd4c0"/>
<rect x="180" y="56" width="24" height="24" fill="#ddd4c0"/>
<rect x="84" y="104" width="24" height="24" fill="#ddd4c0"/>
<rect x="108" y="104" width="24" height="24" fill="#ddd4c0"/>
<rect x="84" y="128" width="24" height="24" fill="#ddd4c0"/>
<rect x="108" y="128" width="24" height="24" fill="#ddd4c0"/>
<rect x="156" y="104" width="24" height="24" fill="#ddd4c0"/>
<rect x="180" y="104" width="24" height="24" fill="#ddd4c0"/>
<rect x="156" y="128" width="24" height="24" fill="#ddd4c0"/>
<rect x="180" y="128" width="24" height="24" fill="#ddd4c0"/>
<rect x="84" y="176" width="24" height="24" fill="#ddd4c0"/>
<rect x="108" y="176" width="24" height="24" fill="#ddd4c0"/>
<rect x="84" y="200" width="24" height="24" fill="#ddd4c0"/>
<rect x="108" y="200" width="24" height="24" fill="#ddd4c0"/>
<rect x="156" y="176" width="24" height="24" fill="#ddd4c0"/>
<rect x="180" y="176" width="24" height="24" fill="#ddd4c0"/>
<rect x="156" y="200" width="24" height="24" fill="#ddd4c0"/>
<rect x="180" y="200" width="24" height="24" fill="#ddd4c0"/>
<rect x="228" y="32" width="24" height="24" fill="#ddd4c0"/>
<rect x="252" y="32" width="24" height="24" fill="#ddd4c0"/>
<rect x="228" y="56" width="24" height="24" fill="#ddd4c0"/>
<rect x="252" y="56" width="24" height="24" fill="#ddd4c0"/>
<rect x="300" y="32" width="24" height="24" fill="#ddd4c0"/>
<rect x="324" y="32" width="24" height="24" fill="#ddd4c0"/>
<rect x="300" y="56" width="24" height="24" fill="#ddd4c0"/>
<rect x="324" y="56" width="24" height="24" fill="#ddd4c0"/>
<rect x="228" y="104" width="24" height="24" fill="#ddd4c0"/>
<rect x="252" y="104" width="24" height="24" fill="#ddd4c0"/>
<rect x="228" y="128" width="24" height="24" fill="#ddd4c0"/>
<rect x="252" y="128" width="24" height="24" fill="#ddd4c0"/>
<rect x="12" y="176" width="24" height="24" fill="#ddd4c0"/>
<rect x="36" y="176" width="24" height="24" fill="#ddd4c0"/>
<rect x="12" y="200" width="24" height="24" fill="#ddd4c0"/>
<rect x="36" y="200" width="24" height="24" fill="#ddd4c0"/>
<rect x="60" y="32" width="24" height="24" fill="#efe9dc"/>
<rect x="132" y="32" width="24" height="24" fill="#efe9dc"/>
<rect x="276" y="32" width="24" height="24" fill="#efe9dc"/>
<rect x="84" y="80" width="24" height="24" fill="#efe9dc"/>
<rect x="156" y="80" width="24" height="24" fill="#efe9dc"/>
<rect x="228" y="80" width="24" height="24" fill="#efe9dc"/>
<rect x="204" y="104" width="24" height="24" fill="#efe9dc"/>
<rect x="84" y="152" width="24" height="24" fill="#efe9dc"/>
<rect x="60" y="176" width="24" height="24" fill="#efe9dc"/>
<rect x="132" y="176" width="24" height="24" fill="#efe9dc"/>
<line x1="12" y1="32" x2="12" y2="56" stroke="#333333" stroke-width="2"/>
<line x1="12" y1="32" x2="36" y2="32" stroke="#333333" stroke-width="2"/>
<line x1="12" y1="56" x2="12" y2="80" stroke="#333333" stroke-width="2"/>
<line x1="12" y1="80" x2="36" y2="80" stroke="#333333" stroke-width="2"/>
<line x1="12" y1="176" x2="12" y2="200" stroke="#333333" stroke-width="2"/>
<line x1="12" y1="176" x2="36" y2="176" stroke="#333333" stroke-width="2"/>
<line x1="12" y1="200" x2="12" y2="224" stroke="#333333" stroke-width="2"/>
<line x1="12" y1="224" x2="36" y2="224" stroke="#333333" stroke-width="2"/>
<line x1="36" y1="32" x2="60" y2="32" stroke="#333333" stroke-width="2"/>
<line x1="36" y1="80" x2="60" y2="80" stroke="#333333" stroke-width="2"/>
<line x1="36" y1="176" x2="60" y2="176" stroke="#333333" stroke-width="2"/>
<line x1="36" y1="224" x2="60" y2="224" stroke="#333333" stroke-width="2"/>
<line x1="60" y1="32" x2="84" y2="32" stroke="#333333" stroke-width="2"/>
<line x1="60" y1="56" x2="60" y2="80" stroke="#333333" stroke-width="2"/>
<line x1="60" y1="56" x2="84" y2="56" stroke="#333333" stroke-width="2"/>
<line x1="60" y1="176" x2="84" y2="176" stroke="#333333" stroke-width="2"/>
<line x1="60" y1="200" x2="60" y2="224" stroke="#333333" stroke-width="2"/>
<line x1="60" y1="200" x2="84" y2="200" stroke="#333333" stroke-width="2"/>
<line x1="84" y1="32" x2="108" y2="32" stroke="#333333" stroke-width="2"/>
<line x1="84" y1="56" x2="84" y2="80" stroke="#333333" stroke-width="2"/>
<line x1="84" y1="80" x2="84" y2="104" stroke="#333333" stroke-width="2"/>
<line x1="84" y1="104" x2="84" y2="128" stroke="#333333" stroke-width="2"/>
<line x1="84" y1="128" x2="84" y2="152" stroke="#333333" stroke-width="2"/>
<line x1="84" y1="152" x2="84" y2="176" stroke="#333333" stroke-width="2"/>
<line x1="84" y1="200" x2="84" y2="224" stroke="#333333" stroke-width="2"/>
<line x1="84" y1="224" x2="108" y2="224" stroke="#333333" stroke-width="2"/>
<line x1="108" y1="32" x2="132" y2="32" stroke="#333333" stroke-width="2"/>
<line x1="108" y1="80" x2="108" y2="104" stroke="#333333" stroke-width="2"/>
<line x1="108" y1="80" x2="132" y2="80" stroke="#333333" stroke-width="2"/>
<line x1="108" y1="104" x2="132" y2="104" stroke="#333333" stroke-width="2"/>
<line x1="108" y1="152" x2="108" y2="176" stroke="#333333" stroke-width="2"/>
<line x1="108" y1="152" x2="132" y2="152" stroke="#333333" stroke-width="2"/>
<line x1="108" y1="176" x2="132" y2="176" stroke="#333333" stroke-width="2"/>
<line x1="108" y1="224" x2="132" y2="224" stroke="#333333" stroke-width="2"/>
<line x1="132" y1="32" x2="156" y2="32" stroke="#333333" stroke-width="2"/>
<line x1="132" y1="56" x2="132" y2="80" stroke="#333333" stroke-width="2"/>
<line x1="132" y1="56" x2="156" y2="56" stroke="#333333" stroke-width="2"/>
<line x1="132" y1="104" x2="132" y2="128" stroke="#333333" stroke-width="2"/>
<line x1="132" y1="128" x2="132" y2="152" stroke="#333333" stroke-width="2"/>
<line x1="132" y1="176" x2="156" y2="176" stroke="#333333" stroke-width="2"/>
<line x1="132" y1="200" x2="132" y2="224" stroke="#333333" stroke-width="2"/>
<line x1="132" y1="200" x2="156" y2="200" stroke="#333333" stroke-width="2"/>
<line x1="156" y1="32" x2="180" y2="32" stroke="#333333" stroke-width="2"/>
<line x1="156" y1="56" x2="156" y2="80" stroke="#333333" stroke-width="2"/>
<line x1="156" y1="80" x2="156" y2="104" stroke="#333333" stroke-width="2"/>
<line x1="156" y1="104" x2="156" y2="128" stroke="#333333" stroke-width="2"/>
<line x1="156" y1="128" x2="156" y2="152" stroke="#333333" stroke-width="2"/>
<line x1="156" y1="152" x2="180" y2="152" stroke="#333333" stroke-width="2"/>
<line x1="156" y1="176" x2="180" y2="176" stroke="#333333" stroke-width="2"/>
<line x1="156" y1="200" x2="156" y2="224" stroke="#333333" stroke-width="2"/>
<line x1="156" y1="224" x2="180" y2="224" stroke="#333333" stroke-width="2"/>
<line x1="180" y1="32" x2="204" y2="32" stroke="#333333" stroke-width="2"/>
<line x1="180" y1="80" x2="180" y2="104" stroke="#333333" stroke-width="2"/>
<line x1="180" y1="80" x2="204" y2="80" stroke="#333333" stroke-width="2"/>
<line x1="180" y1="104" x2="204" y2="104" stroke="#333333" stroke-width="2"/>
<line x1="180" y1="152" x2="204" y2="152" stroke="#333333" stroke-width="2"/>
<line x1="180" y1="176" x2="204" y2="176" stroke="#333333" stroke-width="2"/>
<line x1="180" y1="224" x2="204" y2="224" stroke="#333333" stroke-width="2"/>
<line x1="204" y1="32" x2="204" y2="56" stroke="#333333" stroke-width="2"/>
<line x1="204" y1="56" x2="204" y2="80" stroke="#333333" stroke-width="2"/>
<line x1="204" y1="104" x2="228" y2="104" stroke="#333333" stroke-width="2"/>
<line x1="204" y1="128" x2="204" y2="152" stroke="#333333" stroke-width="2"/>
<line x1="204" y1="128" x2="228" y2="128" stroke="#333333" stroke-width="2"/>
<line x1="204" y1="176" x2="204" y2="200" stroke="#333333" stroke-width="2"/>
<line x1="204" y1="200" x2="204" y2="224" stroke="#333333" stroke-width="2"/>
<line x1="228" y1="32" x2="228" y2="56" stroke="#333333" stroke-width="2"/>
<line x1="228" y1="32" x2="252" y2="32" stroke="#333333" stroke-width="2"/>
<line x1="228" y1="56" x2="228" y2="80" stroke="#333333" stroke-width="2"/>
<line x1="228" y1="80" x2="228" y2="104" stroke="#333333" stroke-width="2"/>
<line x1="228" y1="128" x2="228" y2="152" stroke="#333333" stroke-width="2"/>
<line x1="228" y1="152" x2="252" y2="152" stroke="#333333" stroke-width="2"/>
<line x1="252" y1="32" x2="276" y2="32" stroke="#333333" stroke-width="2"/>
<line x1="252" y1="80" x2="252" y2="104" stroke="#333333" stroke-width="2"/>
<line x1="252" y1="80" x2="276" y2="80" stroke="#333333" stroke-width="2"/>
<line x1="252" y1="104" x2="276" y2="104" stroke="#333333" stroke-width="2"/>
<line x1="252" y1="152" x2="276" y2="152" stroke="#333333" stroke-width="2"/>
<line x1="276" y1="32" x2="300" y2="32" stroke="#333333" stroke-width="2"/>
<line x1="276" y1="56" x2="276" y2="80" stroke="#333333" stroke-width="2"/>
<line x1="276" y1="56" x2="300" y2="56" stroke="#333333" stroke-width="2"/>
<line x1="276" y1="104" x2="276" y2="128" stroke="#333333" stroke-width="2"/>
<line x1="276" y1="128" x2="276" y2="152" stroke="#333333" stroke-width="2"/>
<line x1="300" y1="32" x2="324" y2="32" stroke="#333333" stroke-width="2"/>
<line x1="300" y1="56" x2="300" y2="80" stroke="#333333" stroke-width="2"/>
<line x1="300" y1="80" x2="324" y2="80" stroke="#333333" stroke-width="2"/>
<line x1="324" y1="32" x2="348" y2="32" stroke="#333333" stroke-width="2"/>
<line x1="324" y1="80" x2="348" y2="80" stroke="#333333" stroke-width="2"/>
<line x1="348" y1="32" x2="348" y2="56" stroke="#333333" stroke-width="2"/>
<line x1="348" y1="56" x2="348" y2="80" stroke="#333333" stroke-width="2"/>
<circle cx="24" cy="44" r="7" fill="none" stroke="#1a7f37" stroke-width="2"/>
<text x="15" y="42" font-family="monospace" font-size="8" paint-order="stroke" stroke="#efe9dc" stroke-width="2" fill="#333333">32</text>
<text x="87" y="42" font-family="monospace" font-size="8" paint-order="stroke" stroke="#efe9dc" stroke-width="2" fill="#333333">33</text>
<text x="159" y="42" font-family="monospace" font-size="8" paint-order="stroke" stroke="#efe9dc" stroke-width="2" fill="#333333">34</text>
<text x="87" y="114" font-family="monospace" font-size="8" paint-order="stroke" stroke="#efe9dc" stroke-width="2" fill="#333333">35</text>
<text x="159" y="114" font-family="monospace" font-size="8" paint-order="stroke" stroke="#efe9dc" stroke-width="2" fill="#333333">36</text>
<text x="87" y="186" font-family="monospace" font-size="8" paint-order="stroke" stroke="#efe9dc" stroke-width="2" fill="#333333">37</text>
<text x="159" y="186" font-family="monospace" font-size="8" paint-order="stroke" stroke="#efe9dc" stroke-width="2" fill="#333333">38</text>
<text x="231" y="42" font-family="monospace" font-size="8" paint-order="stroke" stroke="#efe9dc" stroke-width="2" fill="#333333">39</text>
<text x="303" y="42" font-family="monospace" font-size="8" paint-order="stroke" stroke="#efe9dc" stroke-width="2" fill="#333333">40</text>
<text x="231" y="114" font-family="monospace" font-size="8" paint-order="stroke" stroke="#efe9dc" stroke-width="2" fill="#333333">41</text>
<text x="15" y="186" font-family="monospace" font-size="8" paint-order="stroke" stroke="#efe9dc" stroke-width="2" fill="#333333">42</text>
</svg>
