<svg xmlns="http://www.w3.org/2000/svg" width="232" height="236" viewBox="0 0 232 236">
<text x="12" y="16" font-family="monospace" font-size="12" fill="#333333">d-abandoned-crypts level 1</text>
<rect x="12" y="176" width="24" height="24" fill="#ddd4c0"/>
<rect x="36" y="176" width="24" height="24" fill="#ddd4c0"/>
<rect x="12" y="200" width="24" height="24" fill="#ddd4c0"/>
<rect x="36" y="200" width="24" height="24" fill="#ddd4c0"/>
<rect x="12" y="104" width="24" height="24" fill="#ddd4c0"/>
<rect x="36" y="104" width="24" height="24" fill="#ddd4c0"/>
<rect x="12" y="128" width="24" height="24" fill="#ddd4c0"/>
<rect x="36" y="128" width="24" height="24" fill="#ddd4c0"/>
<rect x="84" y="104" width="24" height="24" fill="#ddd4c0"/>
<rect x="108" y="104" width="24" height="24" fill="#ddd4c0"/>
<rect x="84" y="128" width="24" height="24" fill="#ddd4c0"/>
<rect x="108" y="128" width="24" height="24" fill="#ddd4c0"/>
<rect x="12" y="32" width="24" height="24" fill="#ddd4c0"/>
<rect x="36" y="32" width="24" height="24" fill="#ddd4c0"/>
<rect x="12" y="56" width="24" height="24" fill="#ddd4c0"/>
<rect x="36" y="56" width="24" height="24" fill="#ddd4c0"/>
<rect x="12" y="80" width="24" height="24" fill="#efe9dc"/>
<rect x="60" y="104" width="24" height="24" fill="#efe9dc"/>
<rect x="12" y="152" width="24" height="24" fill="#efe9dc"/>
<line x1="12" y1="32" x2="12" y2="56" stroke="#333333" stroke-width="2"/>
<line x1="12" y1="32" x2="36" y2="32" stroke="#333333" stroke-width="2"/>
<line x1="12" y1="56" x2="12" y2="80" stroke="#333333" stroke-width="2"/>
<line x1="12" y1="80" x2="12" y2="104" stroke="#333333" stroke-width="2"/>
<line x1="12" y1="104" x2="12" y2="128" stroke="#333333" stroke-width="2"/>
<line x1="12" y1="128" x2="12" y2="152" stroke="#333333" stroke-width="2"/>
<line x1="12" y1="152" x2="12" y2="176" stroke="#333333" stroke-width="2"/>
<line x1="12" y1="176" x2="12" y2="200" stroke="#333333" stroke-width="2"/>
<line x1="12" y1="200" x2="12" y2="224" stroke="#333333" stroke-width="2"/>
<line x1="12" y1="224" x2="36" y2="224" stroke="#333333" stroke-width="2"/>
<line x1="36" y1="32" x2="60" y2="32" stroke="#333333" stroke-width="2"/>
<line x1="36" y1="80" x2="36" y2="104" stroke="#333333" stroke-width="2"/>
<line x1="36" y1="80" x2="60" y2="80" stroke="#333333" stroke-width="2"/>
<line x1="36" y1="104" x2="60" y2="104" stroke="#333333" stroke-width="2"/>
<line x1="36" y1="152" x2="36" y2="176" stroke="#333333" stroke-width="2"/>
<line x1="36" y1="152" x2="60" y2="152" stroke="#333333" stroke-width="2"/>
<line x1="36" y1="176" x2="60" y2="176" stroke="#333333" stroke-width="2"/>
<line x1="36" y1="224" x2="60" y2="224" stroke="#333333" stroke-width="2"/>
<line x1="60" y1="32" x2="60" y2="56" stroke="#333333" stroke-width="2"/>
<line x1="60" y1="56" x2="60" y2="80" stroke="#333333" stroke-width="2"/>
<line x1="60" y1="104" x2="84" y2="104" stroke="#333333" stroke-width="2"/>
<line x1="60" y1="128" x2="60" y2="152" stroke="#333333" stroke-width="2"/>
<line x1="60" y1="128" x2="84" y2="128" stroke="#333333" stroke-width="2"/>
<line x1="60" y1="176" x2="60" y2="200" stroke="#333333" stroke-width="2"/>
<line x1="60" y1="200" x2="60" y2="224" stroke="#333333" stroke-width="2"/>
<line x1="84" y1="104" x2="108" y2="104" stroke="#333333" stroke-width="2"/>
<line x1="84" y1="128" x2="84" y2="152" stroke="#333333" stroke-width="2"/>
<line x1="84" y1="152" x2="108" y2="152" stroke="#333333" stroke-width="2"/>
<line x1="108" y1="104" x2="132" y2="104" stroke="#333333" stroke-width="2"/>
<line x1="108" y1="152" x2="132" y2="152" stroke="#333333" stroke-width="2"/>
<line x1="132" y1="104" x2="132" y2="128" stroke="#333333" stroke-width="2"/>
<line x1="132" y1="128" x2="132" y2="152" stroke="#333333" stroke-width="2"/>
<circle cx="24" cy="188" r="7" fill="none" stroke="#1a7f37" stroke-width="2"/>
<text x="15" y="186" font-family="monospace" font-size="8" paint-order="stroke" stroke="#efe9dc" stroke-width="2" fill="#333333">22</text>
<text x="15" y="114" font-family="monospace" font-size="8" paint-order="stroke" stroke="#efe9dc" stroke-width="2" fill="#333333">23</text>
<text x="87" y="114" font-family="monospace" font-size="8" paint-order="stroke" stroke="#efe9dc" stroke-width="2" fill="#333333">24</text>
<text x="15" y="42" font-family="monospace" font-size="8" paint-order="stroke" stroke="#efe9dc" stroke-width="2" fill="#333333">25</text>
</svg>
