<svg xmlns="http://www.w3.org/2000/svg" width="432" height="524" viewBox="0 0 432 524">
<text x="12" y="16" font-family="monospace" font-size="12" fill="#333333">the-abandoned-manor level 1</text>
<rect x="84" y="248" width="24" height="24" fill="#ddd4c0"/>
<rect x="108" y="248" width="24" height="24" fill="#ddd4c0"/>
<rect x="84" y="272" width="24" height="24" fill="#ddd4c0"/>
<rect x="108" y="272" width="24" height="24" fill="#ddd4c0"/>
<rect x="12" y="248" width="24" height="24" fill="#ddd4c0"/>
<rect x="36" y="248" width="24" height="24" fill="#ddd4c0"/>
<rect x="12" y="272" width="24" height="24" fill="#ddd4c0"/>
<rect x="36" y="272" width="24" height="24" fill="#ddd4c0"/>
<rect x="156" y="248" width="24" height="24" fill="#ddd4c0"/>
<rect x="180" y="248" width="24" height="24" fill="#ddd4c0"/>
<rect x="156" y="272" width="24" height="24" fill="#ddd4c0"/>
<rect x="180" y="272" width="24" height="24" fill="#ddd4c0"/>
<rect x="84" y="176" width="24" height="24" fill="#ddd4c0"/>
<rect x="108" y="176" width="24" height="24" fill="#ddd4c0"/>
<rect x="84" y="200" width="24" height="24" fill="#ddd4c0"/>
<rect x="108" y="200" width="24" height="24" fill="#ddd4c0"/>
<rect x="84" y="104" width="24" height="24" fill="#ddd4c0"/>
<rect x="108" y="104" width="24" height="24" fill="#ddd4c0"/>
<rect x="84" y="128" width="24" height="24" fill="#ddd4c0"/>
<rect x="108" y="128" width="24" height="24" fill="#ddd4c0"/>
<rect x="372" y="176" width="24" height="24" fill="#ddd4c0"/>
<rect x="396" y="176" width="24" height="24" fill="#ddd4c0"/>
<rect x="372" y="200" width="24" height="24" fill="#ddd4c0"/>
<rect x="396" y="200" width="24" height="24" fill="#ddd4c0"/>
<rect x="84" y="320" width="24" height="24" fill="#ddd4c0"/>
<rect x="108" y="320" width="24" height="24" fill="#ddd4c0"/>
<rect x="84" y="344" width="24" height="24" fill="#ddd4c0"/>
<rect x="108" y="344" width="24" height="24" fill="#ddd4c0"/>
<rect x="156" y="320" width="24" height="24" fill="#ddd4c0"/>
<rect x="180" y="320" width="24" height="24" fill="#ddd4c0"/>
<rect x="156" y="344" width="24" height="24" fill="#ddd4c0"/>
<rect x="180" y="344" width="24" height="24" fill="#ddd4c0"/>
<rect x="228" y="320" width="24" height="24" fill="#ddd4c0"/>
<rect x="252" y="320" width="24" height="24" fill="#ddd4c0"/>
<rect x="228" y="344" width="24" height="24" fill="#ddd4c0"/>
<rect x="252" y="344" width="24" height="24" fill="#ddd4c0"/>
<rect x="228" y="248" width="24" height="24" fill="#ddd4c0"/>
<rect x="252" y="248" width="24" height="24" fill="#ddd4c0"/>
<rect x="228" y="272" width="24" height="24" fill="#ddd4c0"/>
<rect x="252" y="272" width="24" height="24" fill="#ddd4c0"/>
<rect x="300" y="320" width="24" height="24" fill="#ddd4c0"/>
<rect x="324" y="320" width="24" height="24" fill="#ddd4c0"/>
<rect x="300" y="344" width="24" height="24" fill="#ddd4c0"/>
<rect x="324" y="344" width="24" height="24" fill="#ddd4c0"/>
<rect x="228" y="392" width="24" height="24" fill="#ddd4c0"/>
<rect x="252" y="392" width="24" height="24" fill="#ddd4c0"/>
<rect x="228" y="416" width="24" height="24" fill="#ddd4c0"/>
<rect x="252" y="416" width="24" height="24" fill="#ddd4c0"/>
<rect x="372" y="320" width="24" height="24" fill="#ddd4c0"/>
<rect x="396" y="320" width="24" height="24" fill="#ddd4c0"/>
<rect x="372" y="344" width="24" height="24" fill="#ddd4c0"/>
<rect x="396" y="344" width="24" height="24" fill="#ddd4c0"/>
<rect x="228" y="176" width="24" height="24" fill="#ddd4c0"/>
<rect x="252" y="176" width="24" height="24" fill="#ddd4c0"/>
<rect x="228" y="200" width="24" height="24" fill="#ddd4c0"/>
<rect x="252" y="200" width="24" height="24" fill="#ddd4c0"/>
<rect x="228" y="104" width="24" height="24" fill="#ddd4c0"/>
<rect x="252" y="104" width="24" height="24" fill="#ddd4c0"/>
<rect x="228" y="128" width="24" height="24" fill="#ddd4c0"/>
<rect x="252" y="128" width="24" height="24" fill="#ddd4c0"/>
<rect x="228" y="32" width="24" height="24" fill="#ddd4c0"/>
<rect x="252" y="32" width="24" height="24" fill="#ddd4c0"/>
<rect x="228" y="56" width="24" height="24" fill="#ddd4c0"/>
<rect x="252" y="56" width="24" height="24" fill="#ddd4c0"/>
<rect x="372" y="248" width="24" height="24" fill="#ddd4c0"/>
<rect x="396" y="248" width="24" height="24" fill="#ddd4c0"/>
<rect x="372" y="272" width="24" height="24" fill="#ddd4c0"/>
<rect x="396" y="272" width="24" height="24" fill="#ddd4c0"/>
<rect x="276" y="368" width="24" height="24" fill="#ddd4c0"/>
<rect x="300" y="368" width="24" height="24" fill="#ddd4c0"/>
<rect x="276" y="392" width="24" height="24" fill="#ddd4c0"/>
<rect x="300" y="392" width="24" height="24" fill="#ddd4c0"/>
<rect x="228" y="464" width="24" height="24" fill="#ddd4c0"/>
<rect x="252" y="464" width="24" height="24" fill="#ddd4c0"/>
<rect x="228" y="488" width="24" height="24" fill="#ddd4c0"/>
<rect x="252" y="488" width="24" height="24" fill="#ddd4c0"/>
<rect x="276" y="248" width="24" height="24" fill="#ddd4c0"/>
<rect x="300" y="248" width="24" height="24" fill="#ddd4c0"/>
<rect x="276" y="272" width="24" height="24" fill="#ddd4c0"/>
<rect x="300" y="272" width="24" height="24" fill="#ddd4c0"/>
<rect x="156" y="368" width="24" height="24" fill="#ddd4c0"/>
<rect x="180" y="368" width="24" height="24" fill="#ddd4c0"/>
<rect x="156" y="392" width="24" height="24" fill="#ddd4c0"/>
<rect x="180" y="392" width="24" height="24" fill="#ddd4c0"/>
<rect x="228" y="80" width="24" height="24" fill="#efe9dc"/>
<rect x="84" y="152" width="24" height="24" fill="#efe9dc"/>
<rect x="228" y="152" width="24" height="24" fill="#efe9dc"/>
<rect x="84" y="224" width="24" height="24" fill="#efe9dc"/>
<rect x="228" y="224" width="24" height="24" fill="#efe9dc"/>
<rect x="372" y="224" width="24" height="24" fill="#efe9dc"/>
<rect x="60" y="248" width="24" height="24" fill="#efe9dc"/>
<rect x="132" y="248" width="24" height="24" fill="#efe9dc"/>
<rect x="84" y="296" width="24" height="24" fill="#efe9dc"/>
<rect x="228" y="296" width="24" height="24" fill="#efe9dc"/>
<rect x="252" y="296" width="24" height="24" fill="#efe9dc"/>
<rect x="276" y="296" width="24" height="24" fill="#efe9dc"/>
<rect x="372" y="296" width="24" height="24" fill="#efe9dc"/>
<rect x="132" y="320" width="24" height="24" fill="#efe9dc"/>
<rect x="204" y="320" width="24" height="24" fill="#efe9dc"/>
<rect x="276" y="320" width="24" height="24" fill="#efe9dc"/>
<rect x="348" y="320" width="24" height="24" fill="#efe9dc"/>
<rect x="204" y="344" width="24" height="24" fill="#efe9dc"/>
<rect x="276" y="344" width="24" height="24" fill="#efe9dc"/>
<rect x="204" y="368" width="24" height="24" fill="#efe9dc"/>
<rect x="228" y="368" width="24" height="24" fill="#efe9dc"/>
<rect x="228" y="440" width="24" height="24" fill="#efe9dc"/>
<line x1="12" y1="248" x2="12" y2="272" stroke="#333333" stroke-width="2"/>
<line x1="12" y1="248" x2="36" y2="248" stroke="#333333" stroke-width="2"/>
<line x1="12" y1="272" x2="12" y2="296" stroke="#333333" stroke-width="2"/>
<line x1="12" y1="296" x2="36" y2="296" stroke="#333333" stroke-width="2"/>
<line x1="36" y1="248" x2="60" y2="248" stroke="#333333" stroke-width="2"/>
<line x1="36" y1="296" x2="60" y2="296" stroke="#333333" stroke-width="2"/>
<line x1="60" y1="248" x2="84" y2="248" stroke="#333333" stroke-width="2"/>
<line x1="60" y1="272" x2="60" y2="296" stroke="#333333" stroke-width="2"/>
<line x1="60" y1="272" x2="84" y2="272" stroke="#333333" stroke-width="2"/>
<line x1="84" y1="104" x2="84" y2="128" stroke="#333333" stroke-width="2"/>
<line x1="84" y1="104" x2="108" y2="104" stroke="#333333" stroke-width="2"/>
<line x1="84" y1="128" x2="84" y2="152" stroke="#333333" stroke-width="2"/>
<line x1="84" y1="152" x2="84" y2="176" stroke="#333333" stroke-width="2"/>
<line x1="84" y1="176" x2="84" y2="200" stroke="#333333" stroke-width="2"/>
<line x1="84" y1="200" x2="84" y2="224" stroke="#333333" stroke-width="2"/>
<line x1="84" y1="224" x2="84" y2="248" stroke="#333333" stroke-width="2"/>
<line x1="84" y1="272" x2="84" y2="296" stroke="#333333" stroke-width="2"/>
<line x1="84" y1="296" x2="84" y2="320" stroke="#333333" stroke-width="2"/>
<line x1="84" y1="320" x2="84" y2="344" stroke="#333333" stroke-width="2"/>
<line x1="84" y1="344" x2="84" y2="368" stroke="#333333" stroke-width="2"/>
<line x1="84" y1="368" x2="108" y2="368" stroke="#333333" stroke-width="2"/>
<line x1="108" y1="104" x2="132" y2="104" stroke="#333333" stroke-width="2"/>
<line x1="108" y1="152" x2="108" y2="176" stroke="#333333" stroke-width="2"/>
<line x1="108" y1="152" x2="132" y2="152" stroke="#333333" stroke-width="2"/>
<line x1="108" y1="176" x2="132" y2="176" stroke="#333333" stroke-width="2"/>
<line x1="108" y1="224" x2="108" y2="248" stroke="#333333" stroke-width="2"/>
<line x1="108" y1="224" x2="132" y2="224" stroke="#333333" stroke-width="2"/>
<line x1="108" y1="248" x2="132" y2="248" stroke="#333333" stroke-width="2"/>
<line x1="108" y1="296" x2="108" y2="320" stroke="#333333" stroke-width="2"/>
<line x1="108" y1="296" x2="132" y2="296" stroke="#333333" stroke-width="2"/>
<line x1="108" y1="320" x2="132" y2="320" stroke="#333333" stroke-width="2"/>
<line x1="108" y1="368" x2="132" y2="368" stroke="#333333" stroke-width="2"/>
<line x1="132" y1="104" x2="132" y2="128" stroke="#333333" stroke-width="2"/>
<line x1="132" y1="128" x2="132" y2="152" stroke="#333333" stroke-width="2"/>
<line x1="132" y1="176" x2="132" y2="200" stroke="#333333" stroke-width="2"/>
<line x1="132" y1="200" x2="132" y2="224" stroke="#333333" stroke-width="2"/>
<line x1="132" y1="248" x2="156" y2="248" stroke="#333333" stroke-width="2"/>
<line x1="132" y1="272" x2="132" y2="296" stroke="#333333" stroke-width="2"/>
<line x1="132" y1="272" x2="156" y2="272" stroke="#333333" stroke-width="2"/>
<line x1="132" y1="320" x2="156" y2="320" stroke="#333333" stroke-width="2"/>
<line x1="132" y1="344" x2="132" y2="368" stroke="#333333" stroke-width="2"/>
<line x1="132" y1="344" x2="156" y2="344" stroke="#333333" stroke-width="2"/>
<line x1="156" y1="248" x2="180" y2="248" stroke="#333333" stroke-width="2"/>
<line x1="156" y1="272" x2="156" y2="296" stroke="#333333" stroke-width="2"/>
<line x1="156" y1="296" x2="180" y2="296" stroke="#333333" stroke-width="2"/>
<line x1="156" y1="320" x2="180" y2="320" stroke="#333333" stroke-width="2"/>
<line x1="156" y1="344" x2="156" y2="368" stroke="#333333" stroke-width="2"/>
<line x1="156" y1="368" x2="156" y2="392" stroke="#333333" stroke-width="2"/>
<line x1="156" y1="368" x2="180" y2="368" stroke="#333333" stroke-width="2"/>
<line x1="156" y1="392" x2="156" y2="416" stroke="#333333" stroke-width="2"/>
<line x1="156" y1="416" x2="180" y2="416" stroke="#333333" stroke-width="2"/>
<line x1="180" y1="248" x2="204" y2="248" stroke="#333333" stroke-width="2"/>
<line x1="180" y1="296" x2="204" y2="296" stroke="#333333" stroke-width="2"/>
<line x1="180" y1="320" x2="204" y2="320" stroke="#333333" stroke-width="2"/>
<line x1="180" y1="368" x2="204" y2="368" stroke="#333333" stroke-width="2"/>
<line x1="180" y1="416" x2="204" y2="416" stroke="#333333" stroke-width="2"/>
<line x1="204" y1="248" x2="204" y2="272" stroke="#333333" stroke-width="2"/>
<line x1="204" y1="272" x2="204" y2="296" stroke="#333333" stroke-width="2"/>
<line x1="204" y1="320" x2="228" y2="320" stroke="#333333" stroke-width="2"/>
<line x1="204" y1="344" x2="204" y2="368" stroke="#333333" stroke-width="2"/>
<line x1="204" y1="344" x2="228" y2="344" stroke="#333333" stroke-width="2"/>
<line x1="204" y1="392" x2="204" y2="416" stroke="#333333" stroke-width="2"/>
<line x1="204" y1="392" x2="228" y2="392" stroke="#333333" stroke-width="2"/>
<line x1="228" y1="32" x2="228" y2="56" stroke="#333333" stroke-width="2"/>
<line x1="228" y1="32" x2="252" y2="32" stroke="#333333" stroke-width="2"/>
<line x1="228" y1="56" x2="228" y2="80" stroke="#333333" stroke-width="2"/>
<line x1="228" y1="80" x2="228" y2="104" stroke="#333333" stroke-width="2"/>
<line x1="228" y1="104" x2="228" y2="128" stroke="#333333" stroke-width="2"/>
<line x1="228" y1="128" x2="228" y2="152" stroke="#333333" stroke-width="2"/>
<line x1="228" y1="152" x2="228" y2="176" stroke="#333333" stroke-width="2"/>
<line x1="228" y1="176" x2="228" y2="200" stroke="#333333" stroke-width="2"/>
<line x1="228" y1="200" x2="228" y2="224" stroke="#333333" stroke-width="2"/>
<line x1="228" y1="224" x2="228" y2="248" stroke="#333333" stroke-width="2"/>
<line x1="228" y1="248" x2="228" y2="272" stroke="#333333" stroke-width="2"/>
<line x1="228" y1="272" x2="228" y2="296" stroke="#333333" stroke-width="2"/>
<line x1="228" y1="296" x2="228" y2="320" stroke="#333333" stroke-width="2"/>
<line x1="228" y1="368" x2="228" y2="392" stroke="#333333" stroke-width="2"/>
<line x1="228" y1="392" x2="228" y2="416" stroke="#333333" stroke-width="2"/>
<line x1="228" y1="416" x2="228" y2="440" stroke="#333333" stroke-width="2"/>
<line x1="228" y1="440" x2="228" y2="464" stroke="#333333" stroke-width="2"/>
<line x1="228" y1="464" x2="228" y2="488" stroke="#333333" stroke-width="2"/>
<line x1="228" y1="488" x2="228" y2="512" stroke="#333333" stroke-width="2"/>
<line x1="228" y1="512" x2="252" y2="512" stroke="#333333" stroke-width="2"/>
<line x1="252" y1="32" x2="276" y2="32" stroke="#333333" stroke-width="2"/>
<line x1="252" y1="80" x2="252" y2="104" stroke="#333333" stroke-width="2"/>
<line x1="252" y1="80" x2="276" y2="80" stroke="#333333" stroke-width="2"/>
<line x1="252" y1="104" x2="276" y2="104" stroke="#333333" stroke-width="2"/>
<line x1="252" y1="152" x2="252" y2="176" stroke="#333333" stroke-width="2"/>
<line x1="252" y1="152" x2="276" y2="152" stroke="#333333" stroke-width="2"/>
<line x1="252" y1="176" x2="276" y2="176" stroke="#333333" stroke-width="2"/>
<line x1="252" y1="224" x2="252" y2="248" stroke="#333333" stroke-width="2"/>
<line x1="252" y1="224" x2="276" y2="224" stroke="#333333" stroke-width="2"/>
<line x1="252" y1="248" x2="276" y2="248" stroke="#333333" stroke-width="2"/>
<line x1="252" y1="296" x2="252" y2="320" stroke="#333333" stroke-width="2"/>
<line x1="252" y1="296" x2="276" y2="296" stroke="#333333" stroke-width="2"/>
<line x1="252" y1="368" x2="252" y2="392" stroke="#333333" stroke-width="2"/>
<line x1="252" y1="368" x2="276" y2="368" stroke="#333333" stroke-width="2"/>
<line x1="252" y1="392" x2="276" y2="392" stroke="#333333" stroke-width="2"/>
<line x1="252" y1="440" x2="252" y2="464" stroke="#333333" stroke-width="2"/>
<line x1="252" y1="440" x2="276" y2="440" stroke="#333333" stroke-width="2"/>
<line x1="252" y1="464" x2="276" y2="464" stroke="#333333" stroke-width="2"/>
<line x1="252" y1="512" x2="276" y2="512" stroke="#333333" stroke-width="2"/>
<line x1="276" y1="32" x2="276" y2="56" stroke="#333333" stroke-width="2"/>
<line x1="276" y1="56" x2="276" y2="80" stroke="#333333" stroke-width="2"/>
<line x1="276" y1="104" x2="276" y2="128" stroke="#333333" stroke-width="2"/>
<line x1="276" y1="128" x2="276" y2="152" stroke="#333333" stroke-width="2"/>
<line x1="276" y1="176" x2="276" y2="200" stroke="#333333" stroke-width="2"/>
<line x1="276" y1="200" x2="276" y2="224" stroke="#333333" stroke-width="2"/>
<line x1="276" y1="248" x2="276" y2="272" stroke="#333333" stroke-width="2"/>
<line x1="276" y1="248" x2="300" y2="248" stroke="#333333" stroke-width="2"/>
<line x1="276" y1="272" x2="276" y2="296" stroke="#333333" stroke-width="2"/>
<line x1="276" y1="320" x2="300" y2="320" stroke="#333333" stroke-width="2"/>
<line x1="276" y1="344" x2="300" y2="344" stroke="#333333" stroke-width="2"/>
<line x1="276" y1="368" x2="276" y2="392" stroke="#333333" stroke-width="2"/>
<line x1="276" y1="392" x2="276" y2="416" stroke="#333333" stroke-width="2"/>
<line x1="276" y1="416" x2="276" y2="440" stroke="#333333" stroke-width="2"/>
<line x1="276" y1="416" x2="300" y2="416" stroke="#333333" stroke-width="2"/>
<line x1="276" y1="464" x2="276" y2="488" stroke="#333333" stroke-width="2"/>
<line x1="276" y1="488" x2="276" y2="512" stroke="#333333" stroke-width="2"/>
<line x1="300" y1="248" x2="324" y2="248" stroke="#333333" stroke-width="2"/>
<line x1="300" y1="296" x2="300" y2="320" stroke="#333333" stroke-width="2"/>
<line x1="300" y1="296" x2="324" y2="296" stroke="#333333" stroke-width="2"/>
<line x1="300" y1="320" x2="324" y2="320" stroke="#333333" stroke-width="2"/>
<line x1="300" y1="344" x2="300" y2="368" stroke="#333333" stroke-width="2"/>
<line x1="300" y1="368" x2="324" y2="368" stroke="#333333" stroke-width="2"/>
<line x1="300" y1="416" x2="324" y2="416" stroke="#333333" stroke-width="2"/>
<line x1="324" y1="248" x2="324" y2="272" stroke="#333333" stroke-width="2"/>
<line x1="324" y1="272" x2="324" y2="296" stroke="#333333" stroke-width="2"/>
<line x1="324" y1="320" x2="348" y2="320" stroke="#333333" stroke-width="2"/>
<line x1="324" y1="368" x2="324" y2="392" stroke="#333333" stroke-width="2"/>
<line x1="324" y1="368" x2="348" y2="368" stroke="#333333" stroke-width="2"/>
<line x1="324" y1="392" x2="324" y2="416" stroke="#333333" stroke-width="2"/>
<line x1="348" y1="320" x2="372" y2="320" stroke="#333333" stroke-width="2"/>
<line x1="348" y1="344" x2="348" y2="368" stroke="#333333" stroke-width="2"/>
<line x1="348" y1="344" x2="372" y2="344" stroke="#333333" stroke-width="2"/>
<line x1="372" y1="176" x2="372" y2="200" stroke="#333333" stroke-width="2"/>
<line x1="372" y1="176" x2="396" y2="176" stroke="#333333" stroke-width="2"/>
<line x1="372" y1="200" x2="372" y2="224" stroke="#333333" stroke-width="2"/>
<line x1="372" y1="224" x2="372" y2="248" stroke="#333333" stroke-width="2"/>
<line x1="372" y1="248" x2="372" y2="272" stroke="#333333" stroke-width="2"/>
<line x1="372" y1="272" x2="372" y2="296" stroke="#333333" stroke-width="2"/>
<line x1="372" y1="296" x2="372" y2="320" stroke="#333333" stroke-width="2"/>
<line x1="372" y1="344" x2="372" y2="368" stroke="#333333" stroke-width="2"/>
<line x1="372" y1="368" x2="396" y2="368" stroke="#333333" stroke-width="2"/>
<line x1="396" y1="176" x2="420" y2="176" stroke="#333333" stroke-width="2"/>
<line x1="396" y1="224" x2="396" y2="248" stroke="#333333" stroke-width="2"/>
<line x1="396" y1="224" x2="420" y2="224" stroke="#333333" stroke-width="2"/>
<line x1="396" y1="248" x2="420" y2="248" stroke="#333333" stroke-width="2"/>
<line x1="396" y1="296" x2="396" y2="320" stroke="#333333" stroke-width="2"/>
<line x1="396" y1="296" x2="420" y2="296" stroke="#333333" stroke-width="2"/>
<line x1="396" y1="320" x2="420" y2="320" stroke="#333333" stroke-width="2"/>
<line x1="396" y1="368" x2="420" y2="368" stroke="#333333" stroke-width="2"/>
<line x1="420" y1="176" x2="420" y2="200" stroke="#333333" stroke-width="2"/>
<line x1="420" y1="200" x2="420" y2="224" stroke="#333333" stroke-width="2"/>
<line x1="420" y1="248" x2="420" y2="272" stroke="#333333" stroke-width="2"/>
<line x1="420" y1="272" x2="420" y2="296" stroke="#333333" stroke-width="2"/>
<line x1="420" y1="320" x2="420" y2="344" stroke="#333333" stroke-width="2"/>
<line x1="420" y1="344" x2="420" y2="368" stroke="#333333" stroke-width="2"/>
<circle cx="96" cy="260" r="7" fill="none" stroke="#1a7f37" stroke-width="2"/>
<text x="240" y="338" font-family="monospace" font-size="12" text-anchor="middle" fill="#333333">▲</text>
<text x="87" y="258" font-family="monospace" font-size="8" paint-order="stroke" stroke="#efe9dc" stroke-width="2" fill="#333333">77</text>
<text x="15" y="258" font-family="monospace" font-size="8" paint-order="stroke" stroke="#efe9dc" stroke-width="2" fill="#333333">78</text>
<text x="159" y="258" font-family="monospace" font-size="8" paint-order="stroke" stroke="#efe9dc" stroke-width="2" fill="#333333">79</text>
<text x="87" y="186" font-family="monospace" font-size="8" paint-order="stroke" stroke="#efe9dc" stroke-width="2" fill="#333333">80</text>
<text x="87" y="114" font-family="monospace" font-size="8" paint-order="stroke" stroke="#efe9dc" stroke-width="2" fill="#333333">81</text>
<text x="375" y="186" font-family="monospace" font-size="8" paint-order="stroke" stroke="#efe9dc" stroke-width="2" fill="#333333">82</text>
<text x="87" y="330" font-family="monospace" font-size="8" paint-order="stroke" stroke="#efe9dc" stroke-width="2" fill="#333333">83</text>
<text x="159" y="330" font-family="monospace" font-size="8" paint-order="stroke" stroke="#efe9dc" stroke-width="2" fill="#333333">84</text>
<text x="231" y="330" font-family="monospace" font-size="8" paint-order="stroke" stroke="#efe9dc" stroke-width="2" fill="#333333">85</text>
<text x="231" y="258" font-family="monospace" font-size="8" paint-order="stroke" stroke="#efe9dc" stroke-width="2" fill="#333333">86</text>
<text x="303" y="330" font-family="monospace" font-size="8" paint-order="stroke" stroke="#efe9dc" stroke-width="2" fill="#333333">87</text>
<text x="231" y="402" font-family="monospace" font-size="8" paint-order="stroke" stroke="#efe9dc" stroke-width="2" fill="#333333">88</text>
<text x="375" y="330" font-family="monospace" font-size="8" paint-order="stroke" stroke="#efe9dc" stroke-width="2" fill="#333333">89</text>
<text x="231" y="186" font-family="monospace" font-size="8" paint-order="stroke" stroke="#efe9dc" stroke-width="2" fill="#333333">90</text>
<text x="231" y="114" font-family="monospace" font-size="8" paint-order="stroke" stroke="#efe9dc" stroke-width="2" fill="#333333">91</text>
<text x="231" y="42" font-family="monospace" font-size="8" paint-order="stroke" stroke="#efe9dc" stroke-width="2" fill="#333333">92</text>
<text x="375" y="258" font-family="monospace" font-size="8" paint-order="stroke" stroke="#efe9dc" stroke-width="2" fill="#333333">93</text>
<text x="279" y="378" font-family="monospace" font-size="8" paint-order="stroke" stroke="#efe9dc" stroke-width="2" fill="#333333">94</text>
<text x="231" y="474" font-family="monospace" font-size="8" paint-order="stroke" stroke="#efe9dc" stroke-width="2" fill="#333333">95</text>
<text x="279" y="258" font-family="monospace" font-size="8" paint-order="stroke" stroke="#efe9dc" stroke-width="2" fill="#333333">96</text>
<text x="159" y="378" font-family="monospace" font-size="8" paint-order="stroke" stroke="#efe9dc" stroke-width="2" fill="#333333">97</text>
</svg>
